<svg width="792" height="751" viewBox="0 0 792 751" fill="none" xmlns="http://www.w3.org/2000/svg">
<path d="M722 162C727.114 162.532 728.769 164.416 731.914 168.234C739.125 177.795 745.658 187.849 752 198C753.185 199.876 754.373 201.751 755.562 203.625C756.434 205.006 756.434 205.006 757.324 206.414C758.334 207.973 759.371 209.516 760.457 211.023C766.175 218.994 769.964 228.101 774 237C774.356 237.785 774.712 238.569 775.079 239.378C781.112 252.796 785.208 266.811 789 281C789.529 282.711 789.529 282.711 790.069 284.456C791.54 290.416 791.266 296.481 791.23 302.582C791.23 303.873 791.229 305.164 791.229 306.495C791.227 309.212 791.219 311.929 791.206 314.646C791.189 318.128 791.185 321.609 791.186 325.09C791.185 328.421 791.176 331.751 791.168 335.082C791.167 336.332 791.166 337.582 791.164 338.87C791.158 340.025 791.152 341.18 791.145 342.37C791.141 343.388 791.138 344.405 791.134 345.453C791 348 791 348 790 351C789.689 352.83 789.4 354.664 789.125 356.5C787.508 366.26 784.901 374.735 780.598 383.664C779.384 386.199 778.228 388.736 777.101 391.309C771.578 403.785 765.808 415.34 756 425C754.842 426.302 753.695 427.614 752.562 428.938C738.589 444.921 738.589 444.921 732 450C731.34 450 730.68 450 730 450C730 450.66 730 451.32 730 452C716.623 467.043 694.132 477.321 676.625 486.5C675.73 486.973 674.836 487.446 673.914 487.934C669.069 490.476 664.205 492.877 659.185 495.053C657.726 495.685 656.273 496.332 654.827 496.992C648.988 499.655 643.039 501.898 637 504.062C636.067 504.401 635.133 504.739 634.172 505.088C629.226 506.873 624.267 508.601 619.273 510.247C616.792 511.069 614.318 511.91 611.844 512.754C610.062 513.357 608.281 513.96 606.5 514.562C605.614 514.866 604.729 515.17 603.816 515.482C589.06 520.455 589.06 520.455 582 520C582 520.66 582 521.32 582 522C581.102 522.204 581.102 522.204 580.187 522.411C577.395 523.045 574.604 523.679 571.812 524.312C570.872 524.526 569.932 524.739 568.963 524.959C559.384 527.135 549.809 529.326 540.254 531.605C536.908 532.396 536.908 532.396 533.562 533.188C531.866 533.596 531.866 533.596 530.135 534.014C529.04 534.271 527.945 534.528 526.816 534.793C525.841 535.025 524.866 535.258 523.861 535.497C520.852 536.026 518.049 536.087 515 536C515.016 536.774 515.031 537.548 515.047 538.345C515.859 584.565 503.287 625.331 473 661C471.54 662.811 470.081 664.623 468.625 666.438C461.503 675.124 453.822 683.258 445.937 691.25C445.097 692.11 445.097 692.11 444.239 692.988C442.865 694.365 441.437 695.688 440 697C439.34 697 438.68 697 438 697C438 697.66 438 698.32 438 699C436.391 700.586 436.391 700.586 434.25 702.375C431.902 704.348 429.837 706.186 427.812 708.5C427.214 708.995 426.616 709.49 426 710C423.387 709.594 423.387 709.594 421 709C421.115 708.475 421.231 707.949 421.349 707.408C423.114 699.018 424.289 690.546 425.5 682.062C425.925 679.095 426.351 676.127 426.781 673.16C426.885 672.447 426.988 671.733 427.094 670.998C427.812 666.112 428.662 661.262 429.571 656.408C433.809 632.6 434.567 606.047 426.953 582.949C425.23 577.617 424 572.61 424 567C423.34 567 422.68 567 422 567C421.865 566.38 421.729 565.76 421.59 565.121C419.827 557.87 416.994 551.394 413.766 544.711C412.177 541.417 410.751 538.076 409.375 534.688C406.081 526.684 402.379 519.334 397.461 512.207C396.043 510.065 394.826 507.895 393.625 505.625C391.155 501.045 388.132 496.991 384.965 492.871C383.415 490.606 382.235 488.551 381.051 486.102C379.118 482.11 376.784 478.567 374.25 474.938C369.641 468.171 365.678 461.219 361.976 453.922C360.975 451.951 359.957 449.989 358.937 448.027C351.652 433.894 346.215 420.146 343.442 404.439C343.147 402.809 342.817 401.184 342.456 399.567C340.449 389.742 340.699 379.82 340.739 369.838C340.75 366.705 340.739 363.573 340.726 360.439C340.711 339.128 342.597 318.97 353 300C354.133 297.754 355.258 295.504 356.375 293.25C357.25 291.5 358.125 289.75 359 288C360.32 288.33 361.64 288.66 363 289C363.04 290.022 363.079 291.045 363.12 292.098C363.274 295.955 363.451 299.811 363.635 303.667C363.71 305.324 363.78 306.981 363.844 308.638C364.37 322.232 366.315 333.921 373 346C373.628 347.259 373.628 347.259 374.269 348.543C377.999 355.828 382.663 361.823 388 368C388.537 368.66 389.075 369.32 389.629 370C392.116 373.036 394.716 375.696 397.699 378.25C401.815 381.816 405.792 385.51 409.75 389.25C411.164 390.576 412.578 391.901 413.992 393.227C416.367 395.456 418.728 397.697 421.07 399.961C428.202 406.736 435.858 412.407 443.898 418.055C449.402 421.948 454.229 426.229 459 431C459.66 431.33 460.32 431.66 461 432C461 432.66 461 433.32 461 434C462.075 434.342 462.075 434.342 463.172 434.691C477.412 441.28 487.435 459.822 494.807 472.907C495.92 474.861 497.068 476.788 498.234 478.711C506.672 492.726 512.659 509.58 514 526C520.229 525.641 525.057 523.898 530.758 521.41C534.166 519.928 537.6 518.541 541.062 517.188C542.126 516.769 543.189 516.35 544.285 515.918C547 515 547 515 550 515C550 514.34 550 513.68 550 513C552.788 511.493 555.581 509.996 558.375 508.5C559.169 508.071 559.963 507.641 560.781 507.199C561.922 506.59 561.922 506.59 563.086 505.969C563.788 505.592 564.489 505.215 565.212 504.826C567 504 567 504 569 504C569 503.34 569 502.68 569 502C569.498 501.728 569.996 501.457 570.509 501.177C582.136 494.824 593.098 488.465 603.391 480.074C606.078 477.938 608.831 475.932 611.625 473.938C616.342 470.544 620.688 466.887 625 463C630.669 458 630.669 458 633 458C633.371 456.855 633.371 456.855 633.75 455.688C635.121 452.739 636.235 451.642 639 450C639.66 450 640.32 450 641 450C641.219 449.462 641.438 448.925 641.664 448.371C643.458 445.187 645.876 442.696 648.375 440.062C651.024 437.247 653.633 434.462 656.039 431.434C658.196 428.757 660.551 426.411 663 424C672.2 414.222 680.981 404.555 687.35 392.682C688.973 389.67 690.565 387.375 693 385C693.984 383.318 694.917 381.606 695.812 379.875C697.728 376.262 699.717 372.849 702.062 369.5C705.399 364.617 707.664 359.415 710 354C710.83 352.186 711.663 350.374 712.5 348.562C715.13 342.759 717.639 336.918 720 331C720.412 329.966 720.825 328.932 721.25 327.867C725.18 317.476 727.76 306.866 730 296C730.206 295.041 730.411 294.082 730.623 293.094C733.788 277.809 734.275 263.037 733.875 247.5C733.853 246.623 733.831 245.745 733.808 244.841C733.159 208.83 733.159 208.83 722.887 174.797C721.737 172.466 721.545 170.392 721.312 167.812C721.226 166.932 721.14 166.052 721.051 165.145C721.034 164.437 721.017 163.729 721 163C721.33 162.67 721.66 162.34 722 162Z" fill="url(#paint0_linear_345_117)"/>
<mask id="path-2-inside-1_345_117" fill="white">
<path d="M311 2.99958C311.062 5.24958 311.062 5.24958 310 7.99958C306.437 9.81208 306.437 9.81208 303.988 10.7808C290.125 16.4348 277.596 24.1981 265.605 33.105C263.808 34.4122 261.971 35.6662 260.105 36.8746C256.556 39.3034 253.362 41.9879 250.125 44.8121C249.202 45.6099 249.202 45.6099 248.261 46.4239C246.504 47.9454 244.751 49.4714 243 50.9996C242.194 51.7021 241.389 52.4047 240.559 53.1285C239.282 54.245 238.007 55.3634 236.734 56.484C234.943 58.0498 233.129 59.5875 231.312 61.1246C229.159 62.9538 227.145 64.8371 225.187 66.8746C223 68.9996 223 68.9996 221 68.9996C220.752 69.6183 220.505 70.2371 220.25 70.8746C218.763 73.4032 217.563 73.718 215 74.9996C214.696 75.6235 214.392 76.2474 214.078 76.8902C212.894 79.2063 211.797 80.1819 209.75 81.7496C206.454 84.4676 204.062 87.3546 201.582 90.816C199.876 93.1705 198.078 95.4264 196.25 97.6871C194.833 99.4574 193.416 101.228 192 103C191.387 103.76 191.387 103.76 190.763 104.537C185.048 111.662 180.08 118.792 176 127C175.522 127.92 175.043 128.84 174.551 129.789C169.056 140.489 164.221 151.555 159.922 162.789C159 165 159 165 157.539 167.8C155.853 171.306 154.688 174.834 153.625 178.562C153.415 179.292 153.205 180.023 152.989 180.775C149.256 193.991 145.796 207.158 144.632 220.876C144.33 224.403 143.864 227.703 142.992 231.136C141.538 237.375 141.487 243.681 141.312 250.062C141.273 251.377 141.234 252.693 141.194 254.048C140.973 262.414 140.986 270.76 141.312 279.125C141.347 280.051 141.382 280.978 141.417 281.933C141.701 287.663 142.491 293.18 143.489 298.826C144.415 304.582 144.889 310.385 145.437 316.187C147.104 336.184 147.104 336.184 152.961 355.211C154.664 359.783 155.554 364.542 156.517 369.318C160.192 387.209 167.992 404.666 176 421C176.406 421.874 176.812 422.748 177.23 423.648C183.299 436.448 191.904 447.963 200.43 459.207C200.837 459.745 201.244 460.284 201.664 460.839C202.811 462.353 203.964 463.862 205.117 465.371C207 468 207 468 208.07 470.285C208.943 472.36 208.943 472.36 212 473C212.687 475.062 212.687 475.062 213 477C210.345 478.017 209.308 478.13 206.641 477.003C205.852 476.528 205.063 476.052 204.25 475.562C203.051 474.852 203.051 474.852 201.828 474.128C201.225 473.756 200.622 473.383 200 473C200 472.34 200 471.68 200 471C199.283 470.756 198.567 470.512 197.828 470.261C194.632 468.835 192.415 467.076 189.75 464.812C186.312 461.919 182.856 459.117 179.25 456.437C175.624 453.645 172.791 450.596 169.867 447.093C167.029 443.911 163.821 441.183 160.625 438.367C156.245 434.417 152.138 430.2 148 426C147.157 425.163 146.314 424.326 145.445 423.464C143.293 421.295 141.216 419.097 139.187 416.812C138.583 416.138 137.978 415.464 137.355 414.769C136 413 136 413 136 411C135.44 410.806 134.881 410.613 134.305 410.414C131.03 408.404 129.24 405.497 127.125 402.375C126.234 401.087 125.342 399.801 124.449 398.515C124.024 397.9 123.599 397.284 123.162 396.65C121.823 394.749 120.394 392.936 118.937 391.125C115.25 386.253 112.443 380.835 109.504 375.496C107.769 372.353 105.982 369.248 104.152 366.16C99.1104 357.647 94.3582 349.344 90.9999 340C90.7594 339.337 90.5188 338.674 90.2709 337.991C88.6886 333.622 87.1485 329.239 85.6372 324.844C85.1208 323.349 84.5916 321.859 84.0585 320.371C80.4644 310.153 78.6769 299.522 76.8749 288.875C76.7042 287.874 76.5335 286.872 76.3576 285.841C74.484 274.479 73.8356 263.34 73.8696 251.84C73.8749 249.701 73.8696 247.562 73.8632 245.423C73.8584 236.61 73.9378 227.76 74.9999 219C75.3299 218.67 75.6599 218.34 75.9999 218C76.6292 214.357 77.1913 210.711 77.7187 207.052C78.43 202.463 79.4599 198.347 81.1923 194.039C82.0591 191.85 82.8071 189.642 83.5429 187.406C87.2097 176.412 91.5675 166.227 96.9999 156C97.7637 154.46 97.7637 154.46 98.5429 152.89C99.9625 150.074 101.466 147.344 103.062 144.625C103.569 143.751 104.076 142.877 104.598 141.976C105.06 141.324 105.523 140.672 106 140C106.66 140 107.32 140 108 140C108.238 139.493 108.477 138.986 108.723 138.464C114.163 127.967 120.829 118.502 128.652 109.671C130.974 107.118 130.974 107.118 132.691 104.64C133.123 104.099 133.555 103.557 134 103C134.66 103 135.32 103 136 103C136.241 102.431 136.482 101.863 136.73 101.277C138.25 98.5517 140.074 96.7327 142.312 94.5621C143.117 93.7757 143.921 92.9894 144.75 92.1793C145.492 91.46 146.235 90.7407 147 89.9996C147.928 89.0714 148.856 88.1433 149.812 87.1871C150.534 86.4652 151.256 85.7433 152 84.9996C152.722 84.2364 153.444 83.4733 154.187 82.6871C156 80.9996 156 80.9996 158 80.9996C158.186 80.4427 158.371 79.8858 158.562 79.3121C160.383 76.3838 162.586 75.0123 165.441 73.148C167.156 72.0671 167.156 72.0671 168 69.9996C169.646 68.9653 171.318 67.9737 173 66.9996C175.415 65.4451 177.8 63.8463 180.187 62.2496C180.849 61.8086 181.511 61.3675 182.194 60.9132C185.987 58.3773 189.729 55.7848 193.437 53.1246C196.771 50.7691 200.066 48.881 203.754 47.1519C206.697 45.642 209.45 43.8856 212.25 42.1246C228.499 31.9996 228.499 31.9996 233 31.9996C233 31.3396 233 30.6796 233 29.9996C236.999 28.394 241 26.7903 245 25.1871C246.125 24.7353 247.251 24.2834 248.41 23.8179C257.843 20.0394 257.843 20.0394 262.445 18.3316C265.633 17.1371 268.751 15.8496 271.875 14.4996C276.446 12.5743 280.99 11.0264 285.762 9.68708C288.277 8.96481 288.277 8.96481 291.625 7.37458C295.545 5.77751 298.8 5.36799 303 4.99958C303 4.33958 303 3.67958 303 2.99958C306.053 2.01837 307.947 2.01837 311 2.99958Z"/>
</mask>
<path d="M311 2.99958C311.062 5.24958 311.062 5.24958 310 7.99958C306.437 9.81208 306.437 9.81208 303.988 10.7808C290.125 16.4348 277.596 24.1981 265.605 33.105C263.808 34.4122 261.971 35.6662 260.105 36.8746C256.556 39.3034 253.362 41.9879 250.125 44.8121C249.202 45.6099 249.202 45.6099 248.261 46.4239C246.504 47.9454 244.751 49.4714 243 50.9996C242.194 51.7021 241.389 52.4047 240.559 53.1285C239.282 54.245 238.007 55.3634 236.734 56.484C234.943 58.0498 233.129 59.5875 231.312 61.1246C229.159 62.9538 227.145 64.8371 225.187 66.8746C223 68.9996 223 68.9996 221 68.9996C220.752 69.6183 220.505 70.2371 220.25 70.8746C218.763 73.4032 217.563 73.718 215 74.9996C214.696 75.6235 214.392 76.2474 214.078 76.8902C212.894 79.2063 211.797 80.1819 209.75 81.7496C206.454 84.4676 204.062 87.3546 201.582 90.816C199.876 93.1705 198.078 95.4264 196.25 97.6871C194.833 99.4574 193.416 101.228 192 103C191.387 103.76 191.387 103.76 190.763 104.537C185.048 111.662 180.08 118.792 176 127C175.522 127.92 175.043 128.84 174.551 129.789C169.056 140.489 164.221 151.555 159.922 162.789C159 165 159 165 157.539 167.8C155.853 171.306 154.688 174.834 153.625 178.562C153.415 179.292 153.205 180.023 152.989 180.775C149.256 193.991 145.796 207.158 144.632 220.876C144.33 224.403 143.864 227.703 142.992 231.136C141.538 237.375 141.487 243.681 141.312 250.062C141.273 251.377 141.234 252.693 141.194 254.048C140.973 262.414 140.986 270.76 141.312 279.125C141.347 280.051 141.382 280.978 141.417 281.933C141.701 287.663 142.491 293.18 143.489 298.826C144.415 304.582 144.889 310.385 145.437 316.187C147.104 336.184 147.104 336.184 152.961 355.211C154.664 359.783 155.554 364.542 156.517 369.318C160.192 387.209 167.992 404.666 176 421C176.406 421.874 176.812 422.748 177.23 423.648C183.299 436.448 191.904 447.963 200.43 459.207C200.837 459.745 201.244 460.284 201.664 460.839C202.811 462.353 203.964 463.862 205.117 465.371C207 468 207 468 208.07 470.285C208.943 472.36 208.943 472.36 212 473C212.687 475.062 212.687 475.062 213 477C210.345 478.017 209.308 478.13 206.641 477.003C205.852 476.528 205.063 476.052 204.25 475.562C203.051 474.852 203.051 474.852 201.828 474.128C201.225 473.756 200.622 473.383 200 473C200 472.34 200 471.68 200 471C199.283 470.756 198.567 470.512 197.828 470.261C194.632 468.835 192.415 467.076 189.75 464.812C186.312 461.919 182.856 459.117 179.25 456.437C175.624 453.645 172.791 450.596 169.867 447.093C167.029 443.911 163.821 441.183 160.625 438.367C156.245 434.417 152.138 430.2 148 426C147.157 425.163 146.314 424.326 145.445 423.464C143.293 421.295 141.216 419.097 139.187 416.812C138.583 416.138 137.978 415.464 137.355 414.769C136 413 136 413 136 411C135.44 410.806 134.881 410.613 134.305 410.414C131.03 408.404 129.24 405.497 127.125 402.375C126.234 401.087 125.342 399.801 124.449 398.515C124.024 397.9 123.599 397.284 123.162 396.65C121.823 394.749 120.394 392.936 118.937 391.125C115.25 386.253 112.443 380.835 109.504 375.496C107.769 372.353 105.982 369.248 104.152 366.16C99.1104 357.647 94.3582 349.344 90.9999 340C90.7594 339.337 90.5188 338.674 90.2709 337.991C88.6886 333.622 87.1485 329.239 85.6372 324.844C85.1208 323.349 84.5916 321.859 84.0585 320.371C80.4644 310.153 78.6769 299.522 76.8749 288.875C76.7042 287.874 76.5335 286.872 76.3576 285.841C74.484 274.479 73.8356 263.34 73.8696 251.84C73.8749 249.701 73.8696 247.562 73.8632 245.423C73.8584 236.61 73.9378 227.76 74.9999 219C75.3299 218.67 75.6599 218.34 75.9999 218C76.6292 214.357 77.1913 210.711 77.7187 207.052C78.43 202.463 79.4599 198.347 81.1923 194.039C82.0591 191.85 82.8071 189.642 83.5429 187.406C87.2097 176.412 91.5675 166.227 96.9999 156C97.7637 154.46 97.7637 154.46 98.5429 152.89C99.9625 150.074 101.466 147.344 103.062 144.625C103.569 143.751 104.076 142.877 104.598 141.976C105.06 141.324 105.523 140.672 106 140C106.66 140 107.32 140 108 140C108.238 139.493 108.477 138.986 108.723 138.464C114.163 127.967 120.829 118.502 128.652 109.671C130.974 107.118 130.974 107.118 132.691 104.64C133.123 104.099 133.555 103.557 134 103C134.66 103 135.32 103 136 103C136.241 102.431 136.482 101.863 136.73 101.277C138.25 98.5517 140.074 96.7327 142.312 94.5621C143.117 93.7757 143.921 92.9894 144.75 92.1793C145.492 91.46 146.235 90.7407 147 89.9996C147.928 89.0714 148.856 88.1433 149.812 87.1871C150.534 86.4652 151.256 85.7433 152 84.9996C152.722 84.2364 153.444 83.4733 154.187 82.6871C156 80.9996 156 80.9996 158 80.9996C158.186 80.4427 158.371 79.8858 158.562 79.3121C160.383 76.3838 162.586 75.0123 165.441 73.148C167.156 72.0671 167.156 72.0671 168 69.9996C169.646 68.9653 171.318 67.9737 173 66.9996C175.415 65.4451 177.8 63.8463 180.187 62.2496C180.849 61.8086 181.511 61.3675 182.194 60.9132C185.987 58.3773 189.729 55.7848 193.437 53.1246C196.771 50.7691 200.066 48.881 203.754 47.1519C206.697 45.642 209.45 43.8856 212.25 42.1246C228.499 31.9996 228.499 31.9996 233 31.9996C233 31.3396 233 30.6796 233 29.9996C236.999 28.394 241 26.7903 245 25.1871C246.125 24.7353 247.251 24.2834 248.41 23.8179C257.843 20.0394 257.843 20.0394 262.445 18.3316C265.633 17.1371 268.751 15.8496 271.875 14.4996C276.446 12.5743 280.99 11.0264 285.762 9.68708C288.277 8.96481 288.277 8.96481 291.625 7.37458C295.545 5.77751 298.8 5.36799 303 4.99958C303 4.33958 303 3.67958 303 2.99958C306.053 2.01837 307.947 2.01837 311 2.99958Z" fill="url(#paint1_linear_345_117)" stroke="black" stroke-width="2" mask="url(#path-2-inside-1_345_117)"/>
<path d="M472 0C480.571 1 480.571 1 484 2C484 2.66 484 3.32 484 4C485.072 4.10312 486.145 4.20625 487.25 4.3125C492.953 5.00997 498.456 6.53077 504 8C504 8.66 504 9.32 504 10C504.928 10.1031 505.856 10.2062 506.812 10.3125C514.552 11.4271 521.918 13.7314 529 17C532.812 18.6557 536.638 20.2658 540.488 21.832C556.09 28.2144 556.09 28.2144 562.992 32.7734C565.244 34.1493 567.531 35.0795 570 36C570 36.66 570 37.32 570 38C570.723 38.107 571.446 38.214 572.191 38.3242C575.234 39.0562 577.29 40.1606 579.938 41.8125C580.806 42.3513 581.675 42.8902 582.57 43.4453C585.406 45.2597 588.209 47.1178 591 49C591.736 49.4396 592.472 49.8791 593.23 50.332C603.188 56.3293 612.375 62.8892 621.125 70.5312C623.501 72.5717 625.89 74.4356 628.438 76.25C631.627 78.5737 633.967 81.1648 636.445 84.2188C638.703 86.8058 641.291 88.9389 643.898 91.1641C647.431 94.2497 650.931 97.4489 654 101C654 101.66 654 102.32 654 103C654.99 103.33 655.98 103.66 657 104C658.503 105.629 659.931 107.328 661.312 109.062C662.101 110.053 662.89 111.043 663.703 112.062C664.461 113.032 665.219 114.001 666 115C666.634 115.804 667.268 116.609 667.922 117.438C672 122.72 672 122.72 672 125C672.66 125 673.32 125 674 125C674.248 125.577 674.495 126.155 674.75 126.75C675.9 129.076 675.9 129.076 677.844 130.789C680.223 133.228 681.934 135.746 683.75 138.625C684.364 139.587 684.977 140.548 685.609 141.539C687 144 687 144 687 146C687.66 146 688.32 146 689 146C697.83 162.455 705.087 177.934 710 196C710.501 197.574 710.501 197.574 711.012 199.18C719.61 232.416 719.01 279.923 707 312C706.682 312.871 706.363 313.743 706.035 314.641C705.079 317.12 704.043 319.556 703 322C702.455 323.343 701.912 324.687 701.371 326.031C698.533 333.06 695.683 340.016 692.141 346.727C691.228 348.546 690.408 350.412 689.621 352.289C687.939 356.258 685.928 359.998 683.812 363.75C683.418 364.45 683.024 365.151 682.617 365.872C679.705 370.955 676.494 375.693 672.957 380.367C670.898 383.138 669.009 385.983 667.125 388.875C662.739 395.515 657.922 401.755 653 408C652.308 408.888 651.616 409.776 650.902 410.691C644.16 419.257 636.886 427.2 629.121 434.844C627.128 436.87 625.276 438.958 623.438 441.125C620.482 444.577 617.27 447.533 613.797 450.457C611.976 451.968 611.976 451.968 610.391 453.699C609 455 609 455 607 455C606.71 455.837 606.71 455.837 606.414 456.691C604.402 459.976 601.498 461.802 598.375 463.938C597.746 464.376 597.116 464.814 596.468 465.265C594.653 466.521 592.828 467.763 591 469C590.131 469.593 589.262 470.186 588.367 470.797C586.626 471.941 584.82 472.985 583 474C582.34 473.67 581.68 473.34 581 473C581.33 467.712 584.484 463.759 588 460C588.66 460 589.32 460 590 460C590.289 459.237 590.577 458.474 590.875 457.688C592 455 592 455 594 452C594.66 452 595.32 452 596 452C596.267 451.109 596.534 450.219 596.809 449.301C597.938 446.172 599.197 443.918 601.062 441.188C604.263 436.299 607.086 431.287 609.812 426.125C610.197 425.399 610.582 424.674 610.979 423.927C612.855 420.345 614.592 416.798 616 413C616.66 413 617.32 413 618 413C618.124 412.299 618.248 411.598 618.375 410.875C619.038 407.823 619.972 404.947 621 402C621.66 402 622.32 402 623 402C623.34 400.206 623.34 400.206 623.688 398.375C624.915 392.781 626.891 387.499 628.879 382.137C629.731 379.753 630.458 377.467 631 375C631.66 375 632.32 375 633 375C633.062 373.845 633.124 372.69 633.188 371.5C633.846 365.608 635.732 360.156 637.547 354.547C641.614 341.949 645.028 329.149 648.25 316.312C648.496 315.333 648.742 314.354 648.996 313.346C649.684 310.567 650.366 307.792 651 305C651.171 304.267 651.342 303.534 651.518 302.779C652.823 296.822 653.283 291.213 653.23 285.125C653.23 284.234 653.23 283.343 653.229 282.425C653.226 280.562 653.218 278.7 653.206 276.838C653.187 273.979 653.185 271.121 653.186 268.262C653.181 266.445 653.175 264.629 653.168 262.812C653.166 261.53 653.166 261.53 653.165 260.221C653.249 255.976 653.249 255.976 652 252C651.849 250.526 651.749 249.046 651.676 247.566C650.892 234.377 649.297 221.511 647.062 208.5C646.872 207.368 646.872 207.368 646.677 206.213C645.147 197.204 643.387 188.655 639.812 180.188C639 178 639 178 639 174C638.34 173.67 637.68 173.34 637 173C636.247 170.651 635.58 168.317 634.938 165.938C632.486 157.475 628.555 150.398 624.074 142.868C621.931 139.14 620.123 135.242 618.289 131.355C617.051 129.093 615.828 127.775 614 126C613.186 124.629 612.418 123.23 611.688 121.812C607.938 114.876 603.045 109.03 598 103C596.914 101.586 595.831 100.169 594.75 98.75C582.301 82.6907 567.257 69.4372 551.355 56.918C549 55 549 55 547.552 53.5312C546.047 52.0463 544.521 50.8233 542.812 49.582C542.202 49.1363 541.591 48.6906 540.962 48.2314C540.314 47.7632 539.667 47.2949 539 46.8125C538.33 46.3249 537.66 45.8373 536.97 45.335C535.614 44.3487 534.258 43.3635 532.901 42.3794C531.237 41.1721 529.577 39.9595 527.918 38.7461C525.285 36.8214 522.644 34.909 520 33C519.171 32.3941 518.342 31.7883 517.488 31.1641C512.413 27.515 507.242 24.3892 501.719 21.4648C498.25 19.5962 494.905 17.5523 491.543 15.5C488.843 13.9072 486.089 12.4547 483.312 11C478.617 8.47879 474.891 5.63122 471 2C471.33 1.34 471.66 0.68 472 0Z" fill="url(#paint2_linear_345_117)"/>
<path d="M64.7695 170.238C65.5056 170.49 66.2416 170.741 67 171C65.4092 179.628 63.3945 188.086 60.5 196.375C55.5491 210.967 54.8124 225.276 54.875 240.563C54.8772 241.284 54.8794 242.005 54.8817 242.748C54.8999 247.833 54.943 252.916 55 258C55.0125 259.193 55.0251 260.386 55.0381 261.615C55.409 287.487 58.3699 311.079 68.6919 334.966C69.9556 337.897 71.1698 340.844 72.3711 343.801C76.563 354.011 81.2344 363.587 87 373C88.0419 374.75 89.0836 376.5 90.125 378.25C90.611 379.048 91.0969 379.846 91.5976 380.668C92.505 382.177 93.3896 383.7 94.2461 385.238C98.8841 393.427 104.744 400.699 110.524 408.097C111.741 409.666 112.933 411.255 114.117 412.848C117.374 417.222 120.789 420.831 125.008 424.297C129.625 428.244 133.518 432.712 137.375 437.375C143.126 444.239 149.17 450.349 155.969 456.18C158.062 458.056 159.993 460.033 161.937 462.063C165.211 465.381 168.592 467.887 172.52 470.375C175.424 472.278 178.171 474.34 180.937 476.438C190.324 483.525 199.948 489.894 210 496C212.208 497.375 214.417 498.75 216.625 500.125C232.312 509.755 248.586 517.459 266.312 522.563C273.27 524.6 279.557 527.084 285 532C284.033 534.418 283.427 535.741 281.168 537.113C274.538 539.825 267.181 537.49 260.559 535.852C256.887 534.973 253.213 534.249 249.5 533.563C248.85 533.442 248.2 533.322 247.53 533.198C244.46 532.632 241.39 532.071 238.319 531.511C235.482 530.991 232.647 530.465 229.812 529.938C228.915 529.775 228.018 529.613 227.094 529.446C222.814 528.647 219.028 527.677 215 526C212.268 525.275 209.51 524.673 206.75 524.063C201.475 522.861 196.324 521.594 191.229 519.753C188.9 518.967 186.566 518.336 184.187 517.719C177.663 515.957 171.255 513.864 164.847 511.721C162.873 511.062 160.895 510.411 158.918 509.76C152.109 507.502 145.482 505.082 139 502C138.16 501.626 137.319 501.252 136.453 500.867C127.426 496.802 118.497 492.527 109.576 488.236C107.259 487.124 104.936 486.024 102.613 484.926C85.4671 476.715 68.9534 465.634 55.7929 451.828C53.9282 449.927 51.9703 448.219 49.9375 446.5C46.5623 443.592 43.6471 440.486 40.7773 437.082C39.5752 435.674 38.3365 434.296 37.0664 432.949C31.0991 426.587 23.5176 417.828 22 409C21.34 409 20.68 409 20 409C19.7344 408.374 19.4689 407.747 19.1953 407.102C18.6655 405.876 18.6655 405.876 18.125 404.625C17.6029 403.407 17.6029 403.407 17.0703 402.164C16.0755 399.862 16.0755 399.862 14 398C13.1938 396.052 13.1938 396.052 12.414 393.668C12.1249 392.794 11.8357 391.919 11.5378 391.018C11.086 389.617 11.086 389.617 10.625 388.188C10.3141 387.233 10.0032 386.278 9.68284 385.295C9.06433 383.39 8.44847 381.485 7.83543 379.579C7.14958 377.462 6.43946 375.353 5.72264 373.246C0.867097 358.606 0.631186 343.829 0.687482 328.563C0.687976 327.642 0.688469 326.722 0.688978 325.774C0.712688 311.316 1.4909 297.267 3.99998 283C4.19721 281.809 4.39444 280.618 4.59764 279.391C4.73041 278.602 4.86319 277.813 4.99998 277C5.65998 277 6.31998 277 6.99998 277C7.03737 276.394 7.07475 275.788 7.11326 275.164C7.87131 265.503 10.641 257.423 14.7617 248.695C15.8714 246.28 16.8256 243.866 17.75 241.375C20.5269 234.297 24.2892 227.683 27.9101 221.011C28.8852 219.212 29.8496 217.407 30.8125 215.602C34.618 208.504 34.618 208.504 36.5742 205.922C38.2161 203.869 38.2161 203.869 39.4375 200.563C40.9629 197.085 42.6288 194.927 45 192C46.2453 190.115 47.4738 188.218 48.6875 186.313C59.6689 169.8 59.6689 169.8 64.7695 170.238Z" fill="url(#paint3_linear_345_117)"/>
<path d="M324 437C328.349 437.502 330.925 440.061 334 443C334.875 445.312 334.875 445.312 335 447C335.66 447 336.32 447 337 447C338.414 448.573 339.756 450.211 341.063 451.875C343.992 455.549 346.964 459.083 350.188 462.5C359.938 473.242 368.477 485.251 375.352 498.02C376.975 501.054 376.975 501.054 379.008 503.996C381 507 382.646 510.025 384.25 513.25C385.031 514.805 385.031 514.805 385.828 516.391C387 519 387 519 387 521C387.66 521 388.32 521 389 521C389.241 521.518 389.482 522.036 389.731 522.57C395.261 534.526 395.261 534.526 401.375 546.188C405.33 553.29 407.419 560.257 409.254 568.168C409.924 570.97 409.924 570.97 411 573.41C412.691 577.79 413.285 582.409 414.121 587.016C414.697 589.896 415.502 592.601 416.465 595.375C421.596 610.33 422.418 626.138 422.875 641.812C422.901 642.581 422.926 643.349 422.953 644.14C423.435 659.618 422.179 674.678 418.5 689.75C418.181 691.127 418.181 691.127 417.856 692.531C417.007 696.135 416.122 699.644 414.922 703.148C413.999 706.003 413.499 708.795 413.063 711.76C410.952 726.024 406.017 738.974 398 751C396.35 750.67 394.7 750.34 393 750C392.986 749.08 392.972 748.159 392.957 747.211C392.463 734.096 389.738 723.134 380.77 713.086C379 711 379 711 378.012 708.789C377.678 708.199 377.344 707.608 377 707C375.673 706.641 374.339 706.31 373 706C371.359 704.363 371.359 704.363 369.75 702.312C366.227 698.112 362.453 695.15 358 692C347.64 684.329 338.095 676.899 329.813 666.938C329.156 666.163 329.156 666.163 328.486 665.373C323 658.798 323 658.798 323 654C322.34 654 321.68 654 321 654C314.729 638.597 314.729 638.597 312.641 631.93C312.03 629.941 312.03 629.941 310.983 627.943C309.641 623.924 309.657 620.196 309.629 615.984C309.618 615.105 309.607 614.225 309.595 613.318C309.568 610.462 309.562 607.606 309.563 604.75C309.561 603.776 309.56 602.802 309.559 601.799C309.582 587.342 310.529 573.992 314.238 559.961C315.092 556.644 315.833 553.312 316.563 549.965C320.603 531.592 320.603 531.592 322.574 527.293C331.897 505.762 329.155 471.36 324.656 448.82C323.956 444.745 323.889 441.122 324 437Z" fill="url(#paint4_linear_345_117)"/>
<path d="M300 37.9999C300.646 53.8976 297.037 69.7506 290 83.9999C289.416 85.2393 288.833 86.4789 288.25 87.7187C284.235 96.1337 279.824 103.672 274 111C273.352 111.839 272.703 112.678 272.035 113.543C267.955 118.754 263.645 123.711 259.18 128.594C256.516 131.535 253.955 134.557 251.41 137.602C250 139 250 139 248 139C247.736 139.593 247.471 140.186 247.199 140.797C245.956 143.08 244.696 144.474 242.812 146.25C239.637 149.334 236.707 152.548 233.816 155.898C231.898 158.118 229.952 160.311 228 162.5C227.327 163.258 226.654 164.016 225.961 164.797C224.742 166.166 223.519 167.531 222.289 168.891C220.491 170.899 218.743 172.943 217 175C216.285 175.817 215.569 176.634 214.832 177.477C208.79 184.789 204.2 192.663 199.687 201C199.101 202.079 198.514 203.159 197.91 204.271C193.998 211.654 190.831 219.143 188 227C187.744 227.696 187.489 228.392 187.225 229.109C186.212 231.887 185.239 234.679 184.258 237.469C183.423 239.811 182.564 242.145 181.68 244.469C178.948 251.732 177.055 258.707 175.676 266.332C175.189 268.975 174.639 271.543 174.016 274.152C172.707 279.962 172.089 285.837 171.437 291.75C171.312 292.84 171.186 293.931 171.057 295.055C170.298 301.773 169.708 308.485 169.266 315.231C169 318 169 318 168.485 319.899C167.749 323.085 167.797 326.281 167.762 329.535C167.752 330.278 167.743 331.021 167.733 331.787C167.708 334.212 167.696 336.637 167.687 339.062C167.684 339.887 167.68 340.711 167.677 341.561C167.65 356.686 169.181 371.122 172 386C172.871 390.805 173.084 395.131 173 400C171.133 399.887 171.133 399.887 169 399C167.805 396.269 167.805 396.269 166.875 392.812C166.563 391.685 166.251 390.557 165.93 389.394C165.623 388.274 165.316 387.154 165 386C164.662 384.987 164.324 383.974 163.977 382.93C146.526 330.579 153.142 257.947 168 206C168.628 203.607 169.242 201.212 169.856 198.816C175.194 178.077 175.194 178.077 179.957 169.152C181.224 166.538 182.151 163.862 183.125 161.125C186.468 152.251 191.204 144.157 196 136C196.54 135.08 196.54 135.08 197.09 134.141C202.387 125.204 202.387 125.204 206 124C207.219 121.495 207.219 121.495 208 119C208.66 119 209.32 119 210 119C210.246 118.292 210.492 117.585 210.746 116.855C214.492 108.325 221.74 100.977 228 94.1835C229.643 92.3892 231.214 90.5733 232.75 88.6874C236.846 83.7945 241.473 79.6663 246.328 75.5507C248.103 74.0864 248.103 74.0864 249 71.9999C249.66 71.9999 250.32 71.9999 251 71.9999C251 71.3399 251 70.6799 251 69.9999C251.99 69.6699 252.98 69.3399 254 68.9999C255.338 67.6713 256.67 66.3366 258 64.9999C260.636 62.8486 263.349 60.8016 266.062 58.7499C266.821 58.1737 267.58 57.5974 268.361 57.0036C274.185 52.5903 280.038 48.2267 286 43.9999C287.234 43.1008 287.234 43.1008 288.492 42.1835C289.278 41.628 290.065 41.0724 290.875 40.4999C291.892 39.7729 291.892 39.7729 292.93 39.0312C295.431 37.7853 297.241 37.8077 300 37.9999Z" fill="url(#paint5_linear_345_117)"/>
<path d="M486 41C490.588 41.5561 494.724 43.3329 499 45C499 45.66 499 46.32 499 47C500.207 47.3094 500.207 47.3094 501.438 47.625C511.156 51.3758 519.069 58.9271 526.891 65.6172C528.904 67.336 530.719 68.8675 533.125 70C535.802 71.4275 537.126 73.6304 539 76C540.455 77.1966 541.912 78.3923 543.379 79.5742C545.839 81.7382 547.892 84.2057 550.016 86.6953C552.295 89.343 554.643 91.9212 557 94.5C560.507 98.3473 563.986 102.213 567.395 106.148C568.508 107.432 569.631 108.708 570.762 109.977C571.315 110.603 571.868 111.23 572.438 111.875C572.931 112.429 573.425 112.984 573.934 113.555C575 115 575 115 575 117C575.66 117 576.32 117 577 117C580 121.385 580 121.385 580 124C581.485 124.495 581.485 124.495 583 125C584.528 127.268 585.905 129.502 587.25 131.875C588.049 133.254 588.85 134.631 589.652 136.008C590.048 136.689 590.444 137.37 590.851 138.071C592.413 140.693 594.112 143.216 595.813 145.75C598.562 150.024 600.264 154.154 601.856 158.961C603.213 162.566 604.962 165.909 606.75 169.312C617.664 190.411 624.207 214.295 629.188 237.438C629.622 240.799 629.622 240.799 631 242C635.71 265.359 640.494 307.822 630 330C628.35 329.67 626.7 329.34 625 329C624.945 328.078 624.889 327.156 624.832 326.205C624.624 322.744 624.413 319.283 624.201 315.823C624.11 314.332 624.019 312.841 623.93 311.351C623.278 296.721 623.278 296.721 620.625 282.375C619.398 277.712 618.401 273.05 617.5 268.312C616.388 262.658 614.995 257.394 613 252C612.675 251.037 612.35 250.074 612.016 249.082C604.42 226.894 594.204 206.386 581 187C580.51 186.273 580.02 185.547 579.515 184.798C578.044 182.627 576.556 180.469 575.063 178.312C574.576 177.593 574.089 176.873 573.588 176.131C570.647 171.902 567.646 168.545 563.581 165.368C561.855 163.874 560.627 162.298 559.313 160.438C552.761 151.304 544.64 143.151 536 136C526.302 127.899 519.217 118.972 513 108C512.361 106.904 511.721 105.809 511.063 104.68C507.222 98.0786 503.664 91.4098 500.305 84.5469C498.759 81.5303 496.908 78.7982 495 76C491.46 70.1467 489.702 63.9442 487.93 57.3672C487.318 55.1511 486.641 52.9519 485.895 50.7773C484.902 47.6948 484.775 45.2192 485 42C485.33 41.67 485.66 41.34 486 41Z" fill="url(#paint6_linear_345_117)"/>
<defs>
<linearGradient id="paint0_linear_345_117" x1="565.991" y1="162" x2="565.991" y2="710" gradientUnits="userSpaceOnUse">
<stop stop-color="#E11492"/>
<stop offset="1" stop-color="#F41A95"/>
</linearGradient>
<linearGradient id="paint1_linear_345_117" x1="192.442" y1="2.26367" x2="192.442" y2="477.806" gradientUnits="userSpaceOnUse">
<stop stop-color="#D92589"/>
<stop offset="1" stop-color="#B10E69"/>
</linearGradient>
<linearGradient id="paint2_linear_345_117" x1="593.916" y1="0" x2="593.916" y2="474" gradientUnits="userSpaceOnUse">
<stop stop-color="#4D2A72"/>
<stop offset="0.547016" stop-color="#3F1D69"/>
<stop offset="1" stop-color="#331261"/>
</linearGradient>
<linearGradient id="paint3_linear_345_117" x1="142.841" y1="170.124" x2="142.841" y2="538.356" gradientUnits="userSpaceOnUse">
<stop stop-color="#8922A5"/>
<stop offset="1" stop-color="#5B2C7D"/>
</linearGradient>
<linearGradient id="paint4_linear_345_117" x1="366.305" y1="437" x2="366.305" y2="751" gradientUnits="userSpaceOnUse">
<stop stop-color="#AA0269"/>
<stop offset="1" stop-color="#E33092"/>
</linearGradient>
<linearGradient id="paint5_linear_345_117" x1="226.813" y1="37.9023" x2="226.813" y2="400" gradientUnits="userSpaceOnUse">
<stop stop-color="#A33DA1"/>
<stop offset="1" stop-color="#6F1A73"/>
</linearGradient>
<linearGradient id="paint6_linear_345_117" x1="560.596" y1="41" x2="560.596" y2="330" gradientUnits="userSpaceOnUse">
<stop stop-color="#4B276F"/>
<stop offset="1" stop-color="#311D52"/>
</linearGradient>
</defs>
</svg>
