<svg width="644" height="96" viewBox="0 0 644 96" fill="none" xmlns="http://www.w3.org/2000/svg">
<path d="M19.6697 14.2383C31.4756 27.169 43.0244 39.845 54.9268 52.9092C54.9268 37.5464 55.128 22.6081 54.8104 7.68081C54.7084 2.88427 56.2642 1.43078 60.7957 1.93118C63.7584 2.25833 66.8279 2.30633 69.7751 1.9161C73.7356 1.39169 74.5458 4.30432 74.5402 6.66629C74.4743 34.4007 74.1847 62.1347 73.8848 89.8681C73.8681 91.4112 73.6662 93.9077 72.8126 94.2833C71.1482 95.0155 68.0472 95.4285 67.1284 94.4631C55.0826 81.8065 43.3312 68.8702 31.4674 56.0398C27.5067 51.7563 23.4365 47.5741 18.5918 42.4783C18.5918 60.7985 18.5918 78.1065 18.5918 95.1876C12.4183 95.1876 6.91849 95.1876 0.926788 95.1876C0.926788 88.1041 0.926788 81.4966 0.926788 74.8891C0.926788 64.0602 1.04114 53.2296 0.882874 42.4031C0.791444 36.1496 -0.000213957 29.9026 4.33782e-08 23.6526C0.000183043 17.4059 0.499298 11.1522 0.962097 4.91513C1.26657 0.812252 5.10437 -0.588627 8.69995 2.38488C11.7326 4.89291 14.2197 8.06497 16.9156 10.9734C17.8005 11.9281 18.5832 12.9776 19.6697 14.2383Z" fill="url(#paint0_linear_324_119)"/>
<path d="M101.584 49.4922C101.579 64.3139 101.575 78.6355 101.562 92.9572C101.562 93.2714 101.452 93.5855 101.283 94.4906C96.1372 94.4906 90.8785 94.4917 85.6198 94.4902C81.8587 94.4891 82.6004 91.6972 82.5984 89.4819C82.5755 64.169 82.5838 38.8561 82.5838 13.5432C82.5838 1.49159 82.5838 1.49156 94.5661 1.4922C102.062 1.49256 101.821 1.58228 101.658 9.52549C101.388 22.676 101.584 35.8361 101.584 49.4922Z" fill="url(#paint1_linear_324_119)"/>
<path d="M144.742 1.09126C156.495 0.547586 167.254 1.82139 176.57 9.05369C184.533 15.2363 189.334 22.8369 189.881 33.2822C190.349 42.2199 188.199 50.1556 182.64 56.8692C179.662 60.4672 175.424 63.0228 171.343 66.388C175.119 71.0069 179.505 76.3301 183.841 81.6941C186.287 84.7203 188.796 87.713 191.004 90.9093C192.755 93.4447 191.665 95.0935 188.693 94.9995C184.459 94.8654 180.232 94.1381 176.006 94.1738C172.374 94.2045 169.835 93.3881 167.319 90.3258C156.415 77.056 145.122 64.1064 133.296 50.2508C134.845 49.8275 136.217 49.1874 137.62 49.1131C145.525 48.6948 153.61 49.2581 161.269 47.6982C164.686 47.0024 168.17 42.5961 169.978 39.0377C172.344 34.3771 170.422 29.4791 166.804 25.7095C164.392 23.1962 161.492 21.8827 157.69 21.9974C148.232 22.2826 138.76 22.0913 128.97 22.0913C128.89 23.7588 128.763 25.1973 128.76 26.6361C128.743 37.4609 128.751 48.2857 128.751 59.1105C128.751 69.5935 128.864 80.0794 128.597 90.5557C128.566 91.7617 126.516 93.7838 125.233 93.9284C121.286 94.3735 117.225 94.3746 113.279 93.9281C111.992 93.7826 109.908 91.7391 109.9 90.5522C109.71 61.9093 109.784 33.2649 109.71 4.62101C109.701 1.11552 111.716 1.05531 114.268 1.06913C124.26 1.1233 134.252 1.09126 144.742 1.09126Z" fill="url(#paint2_linear_324_119)"/>
<path d="M264.881 25.612C276.619 48.5125 288.157 71.077 300.337 94.8993C292.954 94.8993 286.568 95.193 280.248 94.6797C278.785 94.5608 277.181 91.8701 276.259 90.0501C267.218 72.1933 258.307 54.2702 249.106 35.8595C247.352 38.7318 245.583 41.2786 244.166 44.0081C237.789 56.2878 231.53 68.6279 225.191 80.9269C223.352 84.494 221.499 88.0624 219.447 91.508C217.889 94.1257 216.209 95.8693 212.269 95.2021C207.264 94.3546 202.007 94.997 195.844 94.997C198.315 89.9427 200.41 85.4857 202.656 81.1068C205.446 75.6694 208.373 70.3026 211.222 64.895C221.616 45.1608 231.971 25.4058 242.409 5.69489C245.746 -0.607175 251.163 -1.19375 254.845 4.92108C258.715 11.3497 261.449 18.4624 264.881 25.612Z" fill="url(#paint3_linear_324_119)"/>
<path d="M321.187 55.0733C321.862 56.8662 322.34 58.3205 323.117 60.688C327.2 53.0999 330.807 46.3925 334.417 39.6858C339.29 30.6312 344.447 21.7158 348.962 12.4861C354.022 2.14204 362.684 -0.0319426 372.967 0.67756C373.615 0.722269 374.265 0.736459 376.129 0.818033C374.715 4.24302 373.698 7.31501 372.231 10.1543C365.013 24.123 357.899 38.1532 350.317 51.9243C342.643 65.8613 334.405 79.4859 326.548 93.324C324.431 97.0544 322.177 96.5378 320.129 93.7667C317.851 90.6826 315.869 87.3275 314.139 83.8982C300.621 57.1061 287.193 30.2691 273.759 3.4347C273.479 2.87596 273.466 2.18391 273.337 1.5962C279.368 -2.05825 292.97 0.87095 296.453 7.24461C304.073 21.1888 311.126 35.4428 318.405 49.5736C319.286 51.2839 320.129 53.014 321.187 55.0733Z" fill="url(#paint4_linear_324_119)"/>
<path d="M406.573 47.7056C404.661 43.9528 402.982 40.5082 401.031 36.5061C391.449 54.7004 382.158 72.2178 373.013 89.8117C371.147 93.4009 369.143 95.6679 364.528 95.1277C359.949 94.5917 355.259 95.0104 349.129 95.0104C350.949 91.1155 352.305 88.028 353.813 85.0165C358.916 74.8275 364.003 64.6295 369.224 54.5015C377.459 38.5291 385.762 22.5913 394.11 6.67798C398.03 -0.792444 403.362 -1.31475 407.176 5.94282C414.249 19.4046 420.567 33.2613 427.311 46.8987C434.142 60.7145 441.161 74.4379 447.953 88.273C448.886 90.1718 448.981 92.4816 449.557 95.0104C444.457 95.0104 439.934 94.6145 435.513 95.1205C430.991 95.6382 429.276 93.3199 427.565 89.7955C422.311 78.97 416.759 68.2888 411.359 57.5337C409.781 54.391 408.321 51.1888 406.573 47.7056Z" fill="url(#paint5_linear_324_119)"/>
<path d="M531.489 45.6322C531.489 60.6179 531.586 75.1049 531.376 89.5875C531.347 91.5755 529.787 93.5413 528.935 95.5173C527.108 94.7171 524.792 94.3798 523.528 93.0457C509.456 78.1942 495.534 63.2007 481.612 48.2076C480.036 46.5102 478.71 44.5805 476.138 43.1438C476.138 60.4471 476.138 77.7505 476.138 94.8302C469.981 94.8302 464.484 94.8302 458.489 94.8302C458.489 89.9213 458.489 85.4808 458.489 81.0404C458.489 67.7203 458.604 54.3988 458.445 41.0805C458.353 33.3329 457.638 25.5923 457.559 17.8449C457.513 13.2708 458.106 8.68463 458.518 4.11347C458.802 0.96689 460.917 -0.16342 463.6 0.800508C465.495 1.48102 467.304 2.90341 468.691 4.41626C482.033 18.9653 495.287 33.5948 508.532 48.2326C509.689 49.5103 510.599 51.0105 512.489 53.5871C512.489 47.3832 512.489 42.5131 512.489 37.6431C512.489 27.1535 512.604 16.6619 512.424 6.17539C512.365 2.69968 513.457 1.33124 516.995 1.5791C520.474 1.82291 524.018 1.93515 527.472 1.5531C531.49 1.10867 532.077 4.07379 532.079 6.41055C532.087 19.3177 531.725 32.225 531.489 45.6322Z" fill="url(#paint6_linear_324_119)"/>
<path d="M608.178 22.5731C613.247 32.469 618.009 42.095 622.875 51.668C629.361 64.4292 635.949 77.1391 642.43 89.9033C643.038 91.1007 643.193 92.5281 643.805 94.7411C637.046 94.7411 630.766 95.1846 624.621 94.4642C622.836 94.2548 621.064 90.908 619.927 88.6731C611.017 71.1567 602.263 53.5608 593.286 35.6418C591.573 38.504 589.882 41.0423 588.474 43.7286C580.483 58.969 572.536 74.2322 564.632 89.5174C562.716 93.223 560.925 96.0483 555.627 95.0104C550.985 94.101 546.024 94.8205 540.079 94.8205C542.476 89.9528 544.512 85.6926 546.658 81.4885C550.166 74.616 553.712 67.762 557.301 60.9318C566.928 42.615 576.57 24.3063 586.25 6.01721C587.706 3.26616 589.343 -0.216801 593.069 1.00866C595.657 1.8601 598.346 4.05595 599.791 6.39259C602.909 11.4351 605.256 16.955 608.178 22.5731Z" fill="url(#paint7_linear_324_119)"/>
<defs>
<linearGradient id="paint0_linear_324_119" x1="0" y1="47.9918" x2="74.5403" y2="47.9918" gradientUnits="userSpaceOnUse">
<stop stop-color="#CC05A5"/>
<stop offset="0.92" stop-color="#5C0E78"/>
</linearGradient>
<linearGradient id="paint1_linear_324_119" x1="82.5403" y1="47.9916" x2="101.71" y2="47.9916" gradientUnits="userSpaceOnUse">
<stop stop-color="#CC05A5"/>
<stop offset="0.92" stop-color="#5C0E78"/>
</linearGradient>
<linearGradient id="paint2_linear_324_119" x1="109.71" y1="47.9919" x2="191.844" y2="47.9919" gradientUnits="userSpaceOnUse">
<stop stop-color="#CC05A5"/>
<stop offset="0.92" stop-color="#5C0E78"/>
</linearGradient>
<linearGradient id="paint3_linear_324_119" x1="195.844" y1="47.9913" x2="300.337" y2="47.9913" gradientUnits="userSpaceOnUse">
<stop stop-color="#CC05A5"/>
<stop offset="0.92" stop-color="#5C0E78"/>
</linearGradient>
<linearGradient id="paint4_linear_324_119" x1="273.337" y1="47.9918" x2="376.129" y2="47.9918" gradientUnits="userSpaceOnUse">
<stop stop-color="#CC05A5"/>
<stop offset="0.92" stop-color="#5C0E78"/>
</linearGradient>
<linearGradient id="paint5_linear_324_119" x1="349.129" y1="47.9922" x2="449.557" y2="47.9922" gradientUnits="userSpaceOnUse">
<stop stop-color="#CC05A5"/>
<stop offset="0.92" stop-color="#5C0E78"/>
</linearGradient>
<linearGradient id="paint6_linear_324_119" x1="457.557" y1="47.9921" x2="532.079" y2="47.9921" gradientUnits="userSpaceOnUse">
<stop stop-color="#CC05A5"/>
<stop offset="0.92" stop-color="#5C0E78"/>
</linearGradient>
<linearGradient id="paint7_linear_324_119" x1="540.079" y1="47.9916" x2="643.805" y2="47.9916" gradientUnits="userSpaceOnUse">
<stop stop-color="#CC05A5"/>
<stop offset="0.92" stop-color="#5C0E78"/>
</linearGradient>
</defs>
</svg>
