<svg width="32" height="32" viewBox="0 0 32 32" fill="none" xmlns="http://www.w3.org/2000/svg">
    <path
        d="M16 20C18.7614 20 21 17.7614 21 15C21 12.2386 18.7614 10 16 10C13.2386 10 11 12.2386 11 15C11 17.7614 13.2386 20 16 20Z"
        stroke="white" stroke-width="2" stroke-linecap="round" stroke-linejoin="round" />
    <path d="M6 9C7.65685 9 9 7.65685 9 6C9 4.34315 7.65685 3 6 3C4.34315 3 3 4.34315 3 6C3 7.65685 4.34315 9 6 9Z"
        stroke="white" stroke-width="2" stroke-linecap="round" stroke-linejoin="round" />
    <path
        d="M26 9C27.6569 9 29 7.65685 29 6C29 4.34315 27.6569 3 26 3C24.3431 3 23 4.34315 23 6C23 7.65685 24.3431 9 26 9Z"
        stroke="white" stroke-width="2" stroke-linecap="round" stroke-linejoin="round" />
    <path
        d="M6 29C7.65685 29 9 27.6569 9 26C9 24.3431 7.65685 23 6 23C4.34315 23 3 24.3431 3 26C3 27.6569 4.34315 29 6 29Z"
        stroke="white" stroke-width="2" stroke-linecap="round" stroke-linejoin="round" />
    <path
        d="M26 29C27.6569 29 29 27.6569 29 26C29 24.3431 27.6569 23 26 23C24.3431 23 23 24.3431 23 26C23 27.6569 24.3431 29 26 29Z"
        stroke="white" stroke-width="2" stroke-linecap="round" stroke-linejoin="round" />
    <path d="M9 7L13 13" stroke="white" stroke-width="2" stroke-linecap="round" />
    <path d="M23 7L19 13" stroke="white" stroke-width="2" stroke-linecap="round" />
    <path d="M9 25L13 19" stroke="white" stroke-width="2" stroke-linecap="round" />
    <path d="M23 25L19 19" stroke="white" stroke-width="2" stroke-linecap="round" />
</svg>